<svg width="20" height="21" viewBox="0 0 20 21" fill="none" xmlns="http://www.w3.org/2000/svg">
<path d="M19.7246 18.1944L15.8305 14.1801C15.6547 13.999 15.4165 13.8983 15.1665 13.8983C14.9052 13.8983 14.7533 13.5965 14.895 13.377C15.7509 12.0503 16.2484 10.4585 16.2484 8.74467C16.2484 4.11847 12.612 0.369995 8.12421 0.369995C3.63636 0.369995 0 4.11847 0 8.74467C0 13.3709 3.63636 17.1193 8.12421 17.1193C9.77764 17.1193 11.3141 16.6121 12.5967 15.7386C12.8148 15.5902 13.1237 15.7403 13.1237 16.0041C13.1237 16.2617 13.2214 16.5073 13.3971 16.6885L17.2913 20.7027C17.6584 21.0812 18.2521 21.0812 18.6154 20.7027L19.7207 19.5633C20.0879 19.1848 20.0879 18.5728 19.7246 18.1944ZM8.12421 13.8983C5.36276 13.8983 3.12469 11.5953 3.12469 8.74467C3.12469 5.89808 5.35885 3.59102 8.12421 3.59102C10.8857 3.59102 13.1237 5.89406 13.1237 8.74467C13.1237 11.5912 10.8896 13.8983 8.12421 13.8983Z" fill="#7C7C7C"/>
</svg>
