<svg width="164" height="164" viewBox="0 0 164 164" fill="none" xmlns="http://www.w3.org/2000/svg">
<path fill-rule="evenodd" clip-rule="evenodd" d="M82 164C127.287 164 164 127.287 164 82C164 36.7127 127.287 0 82 0C36.7127 0 0 36.7127 0 82C0 127.287 36.7127 164 82 164ZM50.4126 117.336C56.0446 123.736 63.4259 126.936 72.5566 126.936C76.9939 126.936 81.3033 126.125 85.4846 124.504C89.7513 122.883 93.2073 121.091 95.8526 119.128C98.5833 117.165 101.314 114.733 104.045 111.832C106.775 108.845 108.695 106.413 109.805 104.536L103.789 99.416C95.3406 108.461 87.7033 112.984 80.8766 112.984C71.7459 112.984 67.1806 103.811 67.1806 85.464C67.1806 75.3947 69.1006 66.1787 72.9406 57.816C76.8659 49.368 81.7299 44.888 87.5326 44.376C80.2793 52.9093 76.6526 62.296 76.6526 72.536C76.6526 77.5707 77.9326 81.7093 80.4926 84.952C83.0526 88.1947 86.3379 89.816 90.3486 89.816C96.7486 89.816 101.954 86.5733 105.965 80.088C109.975 73.5173 111.981 66.4347 111.981 58.84C111.981 51.16 110.018 45.1867 106.093 40.92C108.909 39.896 111.511 39.384 113.901 39.384C118.509 39.384 122.818 40.8773 126.829 43.864L127.341 42.712C128.535 40.408 129.474 37.6347 130.157 34.392C128.877 33.112 126.871 32.0453 124.141 31.192C121.495 30.2533 118.637 29.784 115.565 29.784C109.506 29.784 103.405 31.7467 97.2606 35.672C94.3593 34.904 91.6286 34.52 89.0686 34.52C80.1939 34.52 72.0873 37.208 64.7486 42.584C57.4099 47.96 51.7779 54.9573 47.8526 63.576C43.9273 72.1093 41.9646 81.624 41.9646 92.12C41.9646 102.531 44.7806 110.936 50.4126 117.336ZM97.1326 73.816C95.5113 77.9973 93.4206 80.088 90.8606 80.088C89.2393 80.088 87.9593 79.4053 87.0206 78.04C86.0819 76.6747 85.6126 74.712 85.6126 72.152C85.6126 62.5093 89.1539 54.232 96.2366 47.32C98.5406 49.7947 99.6926 53.7627 99.6926 59.224C99.6926 64.6853 98.8393 69.5493 97.1326 73.816Z" fill="#0F2167"/>
</svg>
