<svg width="1599" height="245" viewBox="0 0 1599 245" fill="none" xmlns="http://www.w3.org/2000/svg">
<path d="M70.8 244.4C62.8 244.4 55.0667 242.8 47.6 239.6C40.4 236.667 34.4 231.867 29.6 225.2C25.0667 218.533 22.8 210 22.8 199.6C22.8 184.667 26.1333 169.867 32.8 155.2C39.4667 140.267 48.2667 125.867 59.2 112C42.1333 109.867 28.1333 105.6 17.2 99.2C6.26667 92.8 0.8 83.4667 0.8 71.2C0.8 62.6667 3.2 55.6 8 50C12.8 44.1333 18.8 39.4667 26 36C33.4667 32.5333 41.3333 29.8667 49.6 28C58.1333 26.1333 66 24.9333 73.2 24.4C80.6667 23.8667 86.5333 23.6 90.8 23.6C92.1333 23.6 95.2 23.7333 100 24C105.067 24 110.4 24.2667 116 24.8C121.867 25.0667 126.933 25.6 131.2 26.4C135.467 27.2 137.6 28.1333 137.6 29.2C137.6 30.2667 136.667 30.8 134.8 30.8C131.333 30.8 127.467 30.6667 123.2 30.4C118.933 29.8667 114.667 29.6 110.4 29.6C107.2 29.6 104 29.6 100.8 29.6C97.6 29.6 94.5333 29.7333 91.6 30C86.2667 30.2667 79.6 30.9333 71.6 32C63.6 32.8 55.6 34.6667 47.6 37.6C39.8667 40.2667 33.3333 44.4 28 50C22.6667 55.3333 20 62.6667 20 72C20 81.8667 24 89.6 32 95.2C40.2667 100.533 50.9333 104 64 105.6C76.5333 90.6667 90.8 76.9333 106.8 64.4C122.8 51.6 139.067 40.5333 155.6 31.2C172.4 21.8667 188.533 14.5333 204 9.19998C219.733 3.86665 233.467 1.19999 245.2 1.19999C252.933 1.19999 260.133 2.66665 266.8 5.59998C273.467 8.26666 276.8 14 276.8 22.8C276.8 33.2 272.667 42.9333 264.4 52C256.4 61.0667 245.6 69.3333 232 76.8C218.4 84.2667 203.2 90.8 186.4 96.4C169.6 101.733 152.267 105.867 134.4 108.8C116.533 111.733 99.4667 113.2 83.2 113.2H80C70.1333 126.533 62.1333 140.267 56 154.4C50.1333 168.267 47.2 182.133 47.2 196C47.2 209.067 50.1333 219.067 56 226C61.8667 232.667 68.8 236 76.8 236C88.5333 236 100.667 233.2 113.2 227.6C125.733 221.733 137.333 214.133 148 204.8C158.933 195.467 168.133 185.467 175.6 174.8C183.067 163.867 187.6 153.333 189.2 143.2C189.2 142.667 189.2 142.133 189.2 141.6C189.467 141.067 189.6 140.533 189.6 140C189.6 136.533 188.533 133.733 186.4 131.6C184.267 129.2 180.8 128 176 128C174.933 128 173.867 128.133 172.8 128.4C171.733 128.4 170.533 128.533 169.2 128.8C161.733 130.133 153.2 134 143.6 140.4C134 146.8 124.933 154.8 116.4 164.4C108.133 173.733 101.867 183.733 97.6 194.4C96.5333 194.933 95.8667 195.2 95.6 195.2C94.2667 195.2 94 193.6 94.8 190.4C97.4667 183.2 101.733 175.6 107.6 167.6C113.733 159.333 120.933 151.6 129.2 144.4C137.467 137.2 146.4 131.333 156 126.8C165.6 122.267 175.333 120 185.2 120C192.667 120.267 198.133 122 201.6 125.2C205.067 128.4 206.8 132.667 206.8 138C206.8 145.733 203.6 154.667 197.2 164.8C192.133 172.8 184.933 181.467 175.6 190.8C166.533 199.867 156.133 208.533 144.4 216.8C132.667 224.8 120.4 231.333 107.6 236.4C95.0667 241.733 82.8 244.4 70.8 244.4ZM84.8 106.8C99.4667 106.8 115.067 105.333 131.6 102.4C148.4 99.2 164.8 94.9333 180.8 89.6C196.8 84.2667 211.333 78 224.4 70.8C237.467 63.6 247.867 55.8667 255.6 47.6C263.6 39.3333 267.6 30.6667 267.6 21.6C267.6 15.4667 265.2 11.4667 260.4 9.6C255.867 7.73332 250.933 6.79999 245.6 6.79999C234.667 6.79999 222.267 9.46665 208.4 14.8C194.533 19.8667 180.133 26.9333 165.2 36C150.533 45.0667 136.267 55.7333 122.4 68C108.533 80 96 92.9333 84.8 106.8ZM264.072 229.6C259.272 229.6 255.805 228.4 253.672 226C251.539 223.6 250.472 220.533 250.472 216.8C250.472 213.6 251.272 209.067 252.872 203.2C256.339 193.6 261.405 183.867 268.072 174C274.739 163.867 281.939 154.267 289.672 145.2C297.672 135.867 305.272 127.467 312.472 120C319.672 112.267 325.405 106 329.672 101.2C325.672 101.2 321.272 102.267 316.472 104.4C311.939 106.533 307.272 109.067 302.472 112C291.005 120 279.405 129.467 267.672 140.4C256.205 151.333 245.405 162.533 235.272 174C225.405 185.467 217.005 196 210.072 205.6C203.139 215.2 198.739 222.667 196.872 228C192.605 228 190.472 225.333 190.472 220C190.472 215.467 191.805 209.867 194.472 203.2C197.139 196.267 200.472 189.333 204.472 182.4C213.539 167.2 224.605 150.8 237.672 133.2C251.005 115.333 264.739 98.6667 278.872 83.2C291.405 69.3333 305.005 56.8 319.672 45.6C334.339 34.4 349.672 26.5333 365.672 22C368.072 21.2 370.872 20.5333 374.072 20C377.272 19.4667 380.605 19.2 384.072 19.2C390.472 19.2 395.939 20.1333 400.472 22C402.605 23.0667 404.739 24.5333 406.872 26.4C409.005 28 410.472 30.4 411.272 33.6C408.339 31.2 405.005 29.4667 401.272 28.4C397.539 27.0667 393.005 26.4 387.672 26.4C377.272 26.4 366.605 29.4667 355.672 35.6C345.005 41.4667 334.739 48.6667 324.872 57.2C315.272 65.7333 306.739 74.2667 299.272 82.8C292.072 91.0667 286.472 97.6 282.472 102.4C272.072 115.2 262.872 127.2 254.872 138.4C247.139 149.333 240.605 158.667 235.272 166.4C245.939 154.667 257.539 142.933 270.072 131.2C282.872 119.2 294.605 109.733 305.272 102.8C308.739 100.4 312.339 98.4 316.072 96.8C319.805 95.2 323.672 94.4 327.672 94.4C334.872 94.4 338.472 97.2 338.472 102.8C338.472 107.067 335.939 112.133 330.872 118C321.539 128.667 312.072 140.533 302.472 153.6C292.872 166.4 284.739 179.2 278.072 192C277.005 193.867 275.139 197.6 272.472 203.2C270.072 208.533 268.872 213.067 268.872 216.8C268.872 220 270.339 221.6 273.272 221.6C279.405 221.6 286.872 217.733 295.672 210C304.472 202 313.005 193.2 321.272 183.6C322.339 183.6 322.872 184.4 322.872 186C322.872 188.4 322.339 190.267 321.272 191.6C317.539 195.6 312.739 200.667 306.872 206.8C301.272 212.667 294.872 218 287.672 222.8C280.472 227.333 272.605 229.6 264.072 229.6ZM328.45 228.4C318.583 228.4 313.65 222.8 313.65 211.6C313.65 205.2 315.517 197.6 319.25 188.8C322.983 179.733 328.583 170.267 336.05 160.4C341.383 153.733 347.917 146.667 355.65 139.2C363.383 131.467 371.783 124.133 380.85 117.2C390.183 110.267 399.65 104.667 409.25 100.4C418.85 95.8667 428.183 93.6 437.25 93.6C441.25 93.6 444.05 94.2667 445.65 95.6C447.25 96.6667 448.317 97.8667 448.85 99.2C449.383 100.267 449.383 101.067 448.85 101.6C448.583 102.133 448.183 102.267 447.65 102C446.583 101.467 444.45 101.2 441.25 101.2C431.65 101.2 420.183 105.867 406.85 115.2C393.783 124.267 380.85 136.133 368.05 150.8C358.983 160.933 351.517 170.933 345.65 180.8C339.783 190.4 335.917 198.4 334.05 204.8C333.517 206.933 333.25 208.8 333.25 210.4C333.25 214.133 334.717 216 337.65 216C339.517 216 342.05 215.2 345.25 213.6C348.45 211.733 352.583 208.667 357.65 204.4C365.65 197.467 373.517 189.333 381.25 180C389.25 170.667 397.117 161.2 404.85 151.6C412.583 141.733 420.05 132.667 427.25 124.4C434.717 116.133 441.783 109.867 448.45 105.6C456.983 100 462.85 96.8 466.05 96C469.517 95.2 472.317 94.6667 474.45 94.4C473.117 96 470.183 99.7333 465.65 105.6C461.117 111.467 456.317 117.733 451.25 124.4C446.183 130.8 442.05 136.133 438.85 140.4C434.05 147.333 428.85 154.8 423.25 162.8C417.917 170.8 412.983 178.4 408.45 185.6C404.183 192.533 401.25 198.267 399.65 202.8C398.317 207.333 397.65 210.667 397.65 212.8C397.65 217.067 399.383 219.2 402.85 219.2C405.25 219.2 408.05 218.267 411.25 216.4C414.717 214.267 418.183 211.867 421.65 209.2C426.183 205.467 430.45 201.6 434.45 197.6C438.45 193.333 442.583 188.667 446.85 183.6C447.917 183.6 448.45 184.4 448.45 186C448.45 188.4 447.917 190.267 446.85 191.6C443.383 195.6 439.117 200 434.05 204.8C429.25 209.6 424.45 213.867 419.65 217.6C416.183 220.533 412.183 223.067 407.65 225.2C403.117 227.333 398.717 228.4 394.45 228.4C388.317 228.4 384.05 226.933 381.65 224C379.25 221.067 378.05 217.333 378.05 212.8C378.05 207.467 379.25 201.733 381.65 195.6C384.05 189.2 386.717 183.2 389.65 177.6C386.183 181.867 381.783 187.067 376.45 193.2C371.117 199.067 366.317 204 362.05 208C356.183 213.333 350.583 218.133 345.25 222.4C339.917 226.4 334.317 228.4 328.45 228.4ZM454.669 229.6C448.002 229.6 443.335 228 440.669 224.8C438.002 221.6 436.669 217.467 436.669 212.4C436.669 203.6 439.869 193.6 446.269 182.4C450.002 176 455.069 168.667 461.469 160.4C468.135 151.867 475.602 142.933 483.869 133.6C492.135 124 500.402 114.667 508.669 105.6H481.869L486.269 100H513.869C521.335 92.2667 528.269 85.0667 534.669 78.4C541.335 71.4667 546.802 65.8667 551.069 61.6C562.802 49.8667 573.602 40.9333 583.469 34.8C593.602 28.6667 601.602 25.6 607.469 25.6C603.202 29.3333 596.935 35.2 588.669 43.2C580.669 51.2 571.735 60.1333 561.869 70C552.269 79.8667 542.802 89.8667 533.469 100H561.069L556.669 105.6H528.669C523.602 111.467 518.802 116.933 514.269 122C510.002 127.067 506.269 131.867 503.069 136.4C490.535 153.467 480.402 167.467 472.669 178.4C464.935 189.333 459.869 197.6 457.469 203.2C455.602 207.733 454.669 211.467 454.669 214.4C454.669 219.467 457.069 222 461.869 222C465.869 222 470.135 220.667 474.669 218C481.335 214.267 488.002 208.933 494.669 202C501.602 194.8 507.202 188.667 511.469 183.6C512.535 183.6 513.069 184.4 513.069 186C513.069 188.4 512.535 190.267 511.469 191.6C501.335 203.333 491.869 212.667 483.069 219.6C474.269 226.267 464.802 229.6 454.669 229.6ZM518.684 228.4C508.818 228.4 503.884 222.8 503.884 211.6C503.884 205.2 505.751 197.6 509.484 188.8C513.218 179.733 518.818 170.267 526.284 160.4C531.618 153.733 538.151 146.667 545.884 139.2C553.618 131.467 562.018 124.133 571.084 117.2C580.418 110.267 589.884 104.667 599.484 100.4C609.084 95.8667 618.418 93.6 627.484 93.6C631.484 93.6 634.284 94.2667 635.884 95.6C637.484 96.6667 638.551 97.8667 639.084 99.2C639.618 100.267 639.618 101.067 639.084 101.6C638.818 102.133 638.418 102.267 637.884 102C636.818 101.467 634.684 101.2 631.484 101.2C621.884 101.2 610.418 105.867 597.084 115.2C584.018 124.267 571.084 136.133 558.284 150.8C549.218 160.933 541.751 170.933 535.884 180.8C530.018 190.4 526.151 198.4 524.284 204.8C523.751 206.933 523.484 208.8 523.484 210.4C523.484 214.133 524.951 216 527.884 216C529.751 216 532.284 215.2 535.484 213.6C538.684 211.733 542.818 208.667 547.884 204.4C555.884 197.467 563.751 189.333 571.484 180C579.484 170.667 587.351 161.2 595.084 151.6C602.818 141.733 610.284 132.667 617.484 124.4C624.951 116.133 632.018 109.867 638.684 105.6C647.218 100 653.084 96.8 656.284 96C659.751 95.2 662.551 94.6667 664.684 94.4C663.351 96 660.418 99.7333 655.884 105.6C651.351 111.467 646.551 117.733 641.484 124.4C636.418 130.8 632.284 136.133 629.084 140.4C624.284 147.333 619.084 154.8 613.484 162.8C608.151 170.8 603.218 178.4 598.684 185.6C594.418 192.533 591.484 198.267 589.884 202.8C588.551 207.333 587.884 210.667 587.884 212.8C587.884 217.067 589.618 219.2 593.084 219.2C595.484 219.2 598.284 218.267 601.484 216.4C604.951 214.267 608.418 211.867 611.884 209.2C616.418 205.467 620.684 201.6 624.684 197.6C628.684 193.333 632.818 188.667 637.084 183.6C638.151 183.6 638.684 184.4 638.684 186C638.684 188.4 638.151 190.267 637.084 191.6C633.618 195.6 629.351 200 624.284 204.8C619.484 209.6 614.684 213.867 609.884 217.6C606.418 220.533 602.418 223.067 597.884 225.2C593.351 227.333 588.951 228.4 584.684 228.4C578.551 228.4 574.284 226.933 571.884 224C569.484 221.067 568.284 217.333 568.284 212.8C568.284 207.467 569.484 201.733 571.884 195.6C574.284 189.2 576.951 183.2 579.884 177.6C576.418 181.867 572.018 187.067 566.684 193.2C561.351 199.067 556.551 204 552.284 208C546.418 213.333 540.818 218.133 535.484 222.4C530.151 226.4 524.551 228.4 518.684 228.4ZM645.703 229.6C639.57 229.6 635.303 228 632.903 224.8C630.236 221.6 628.903 217.6 628.903 212.8C628.903 208 629.836 202.933 631.703 197.6C633.57 192 635.57 186.933 637.703 182.4C642.503 174.4 647.703 166.4 653.303 158.4C659.17 150.133 665.436 141.6 672.103 132.8C679.303 123.2 687.57 112.8 696.903 101.6C706.236 90.4 716.236 79.4667 726.903 68.8C737.836 57.8667 749.303 48.2667 761.303 40C773.303 31.7333 785.57 25.7333 798.103 22C800.503 21.2 803.303 20.5333 806.503 20C809.97 19.4667 813.436 19.2 816.903 19.2C819.836 19.2 822.636 19.4667 825.303 20C828.236 20.2666 830.903 20.9333 833.303 22C835.436 23.0667 837.57 24.5333 839.703 26.4C841.836 28 843.17 30.4 843.703 33.6C841.036 31.2 837.836 29.4667 834.103 28.4C830.37 27.0667 825.836 26.4 820.503 26.4C809.836 26.4 799.97 28.8 790.903 33.6C781.836 38.1333 773.17 44.2667 764.903 52C756.903 59.4667 749.17 67.7333 741.703 76.8C734.236 85.6 726.77 94.1333 719.303 102.4C708.636 114.4 698.636 126.4 689.303 138.4C679.97 150.4 672.503 161.333 666.903 171.2C672.236 164.533 678.236 157.467 684.903 150C691.57 142.533 698.103 135.6 704.503 129.2C710.903 122.533 716.236 117.333 720.503 113.6C726.37 108.267 732.103 104 737.703 100.8C743.303 97.3333 749.036 95.3333 754.903 94.8C764.503 94.2667 769.303 99.8667 769.303 111.6C769.303 117.733 767.436 125.333 763.703 134.4C760.236 143.2 754.636 152.667 746.903 162.8C741.836 169.467 735.303 176.667 727.303 184.4C719.57 191.867 711.036 199.067 701.703 206C692.636 212.933 683.303 218.667 673.703 223.2C664.103 227.467 654.77 229.6 645.703 229.6ZM649.303 224C659.436 223.2 670.103 217.867 681.303 208C692.77 198.133 704.77 186.133 717.303 172C726.636 161.6 734.37 151.6 740.503 142C746.903 132.133 751.036 124.133 752.903 118C753.17 117.2 753.303 116.133 753.303 114.8C753.303 112.667 752.77 110.8 751.703 109.2C750.636 107.333 748.903 106.4 746.503 106.4C744.37 106.4 741.436 107.333 737.703 109.2C734.236 111.067 729.836 114.267 724.503 118.8C719.97 122.533 713.836 128.133 706.103 135.6C698.636 142.8 691.036 150.667 683.303 159.2C680.903 161.867 677.436 165.6 672.903 170.4C668.636 175.2 664.103 180.533 659.303 186.4C654.77 192.267 650.903 198 647.703 203.6C644.503 209.2 642.903 214.133 642.903 218.4C642.903 220.267 643.57 221.733 644.903 222.8C646.236 223.6 647.703 224 649.303 224ZM772.684 229.2C759.351 229.2 752.684 223.067 752.684 210.8C752.684 206.8 753.618 202.133 755.484 196.8C757.351 191.467 760.818 184.4 765.884 175.6C772.818 163.6 782.551 149.467 795.084 133.2C807.884 116.933 821.484 101.067 835.884 85.6C848.418 71.4667 862.018 58.5333 876.684 46.8C891.618 34.8 907.084 26.5333 923.084 22C925.484 21.2 928.284 20.5333 931.484 20C934.684 19.4667 938.018 19.2 941.484 19.2C947.884 19.2 953.351 20.1333 957.884 22C960.018 23.0667 962.151 24.5333 964.284 26.4C966.418 28 967.884 30.4 968.684 33.6C965.751 31.2 962.418 29.4667 958.684 28.4C954.951 27.0667 950.418 26.4 945.084 26.4C931.218 26.4 917.884 30.9333 905.084 40C892.284 49.0667 879.484 60.8 866.684 75.2C854.151 89.3333 840.951 104.4 827.084 120.4C821.751 126.533 815.884 134.133 809.484 143.2C803.084 152.267 796.951 161.333 791.084 170.4C785.484 179.467 780.951 187.2 777.484 193.6C775.618 196.533 774.151 199.733 773.084 203.2C772.284 206.4 771.884 209.067 771.884 211.2C771.884 217.6 774.284 220.8 779.084 220.8C784.151 220.8 789.751 218.4 795.884 213.6C802.284 208.8 808.284 203.467 813.884 197.6C819.751 191.733 824.151 187.067 827.084 183.6C828.151 183.6 828.684 184.4 828.684 186C828.684 188.4 828.151 190.267 827.084 191.6C816.418 203.867 806.551 213.2 797.484 219.6C788.684 226 780.418 229.2 772.684 229.2ZM857.509 230.8C845.243 230.8 836.576 228.133 831.509 222.8C826.443 217.467 823.909 210.267 823.909 201.2C823.909 192.4 826.309 183.2 831.109 173.6C836.176 163.733 842.443 154.4 849.909 145.6C854.443 140.267 860.043 134.667 866.709 128.8C873.376 122.933 880.576 117.467 888.309 112.4C896.043 107.067 903.643 102.8 911.109 99.6C918.843 96.1333 925.643 94.4 931.509 94.4C934.709 94.4 937.643 95.2 940.309 96.8C942.976 98.1333 944.309 101.2 944.309 106C944.309 112.667 941.109 119.067 934.709 125.2C928.309 131.067 921.109 136.533 913.109 141.6C904.043 147.467 894.576 152.4 884.709 156.4C874.843 160.4 866.309 163.467 859.109 165.6C855.109 172 851.909 178.533 849.509 185.2C847.109 191.867 845.909 198.4 845.909 204.8C845.909 211.733 847.509 216.533 850.709 219.2C854.176 221.6 858.176 222.8 862.709 222.8C870.976 222.8 878.443 220.933 885.109 217.2C892.043 213.2 898.443 208.133 904.309 202C910.176 195.867 915.776 189.733 921.109 183.6C922.176 183.6 922.709 184.4 922.709 186C922.709 188.4 922.176 190.267 921.109 191.6C915.776 197.733 909.909 203.867 903.509 210C897.376 216.133 890.576 221.2 883.109 225.2C875.643 228.933 867.109 230.8 857.509 230.8ZM863.909 160C870.843 157.6 878.976 154.267 888.309 150C897.909 145.733 906.309 141.067 913.509 136C915.109 134.933 917.909 132.8 921.909 129.6C925.909 126.133 929.643 122.4 933.109 118.4C936.576 114.133 938.309 110.4 938.309 107.2C938.309 102.933 936.176 100.8 931.909 100.8C927.376 100.8 922.176 102.8 916.309 106.8C910.709 110.8 906.176 114.267 902.709 117.2C896.309 123.067 889.643 129.6 882.709 136.8C875.776 144 869.509 151.733 863.909 160ZM1042.91 238C1032.25 238 1023.45 236.533 1016.51 233.6C1009.58 230.667 1003.85 226.8 999.313 222C993.713 214.8 990.913 206.267 990.913 196.4C990.913 186 993.713 175.333 999.313 164.4C1005.18 153.2 1013.05 143.067 1022.91 134C1035.45 122.267 1049.85 112.8 1066.11 105.6C1082.38 98.4 1099.98 94.8 1118.91 94.8C1124.78 94.8 1130.91 95.2 1137.31 96C1140.51 96.8 1142.11 97.4667 1142.11 98C1142.11 98.8 1140.91 99.2 1138.51 99.2C1136.65 99.2 1134.65 99.0667 1132.51 98.8C1130.65 98.5333 1128.65 98.4 1126.51 98.4C1115.58 98.4 1104.38 100.533 1092.91 104.8C1081.71 108.8 1071.05 114.267 1060.91 121.2C1050.78 128.133 1041.85 135.6 1034.11 143.6C1028.25 150 1022.51 157.733 1016.91 166.8C1011.58 175.867 1007.98 185.733 1006.11 196.4C1005.85 197.467 1005.71 198.533 1005.71 199.6C1005.71 200.667 1005.71 201.733 1005.71 202.8C1005.71 210.8 1008.25 217.6 1013.31 223.2C1018.38 228.533 1026.65 231.2 1038.11 231.2C1049.85 231.2 1060.78 228.267 1070.91 222.4C1081.31 216.267 1091.05 208.8 1100.11 200C1109.18 190.933 1117.58 182 1125.31 173.2C1135.18 162 1146.11 147.6 1158.11 130C1170.11 112.4 1182.65 94.9333 1195.71 77.6C1204.51 65.8667 1214.11 54.4 1224.51 43.2C1235.18 31.7333 1244.78 23.0667 1253.31 17.2C1241.85 15.8667 1230.38 14.4 1218.91 12.8C1207.45 11.2 1195.58 10.2667 1183.31 9.99999C1180.91 9.99999 1178.51 9.99999 1176.11 9.99999C1173.71 9.73333 1171.45 9.6 1169.31 9.6C1151.45 9.6 1134.51 11.6 1118.51 15.6C1102.78 19.6 1090.65 27.3333 1082.11 38.8C1079.71 42 1077.98 45.2 1076.91 48.4C1075.85 51.6 1075.31 54.6667 1075.31 57.6C1075.31 61.3333 1076.25 64.8 1078.11 68C1079.18 69.0667 1080.38 70.2667 1081.71 71.6C1083.05 72.6667 1084.25 73.2 1085.31 73.2C1084.25 74.2667 1082.78 74.8 1080.91 74.8C1079.05 74.8 1077.18 74.4 1075.31 73.6C1073.71 72.5333 1072.38 71.4667 1071.31 70.4C1068.65 67.4667 1066.65 64.1333 1065.31 60.4C1063.98 56.4 1063.31 52.5333 1063.31 48.8C1063.31 41.3333 1065.18 35.0667 1068.91 30C1083.31 10.2667 1107.58 0.399998 1141.71 0.399998C1143.85 0.399998 1145.98 0.399998 1148.11 0.399998C1150.51 0.399998 1152.78 0.533329 1154.91 0.799993C1174.65 1.86666 1194.11 3.86666 1213.31 6.79999C1232.78 9.73331 1253.18 11.2 1274.51 11.2C1286.25 11.2 1296.78 10.6667 1306.11 9.6C1315.71 8.26667 1322.11 6 1325.31 2.79999H1326.11C1327.18 2.79999 1328.11 3.19999 1328.91 4C1329.98 4.53333 1330.51 5.59999 1330.51 7.19998C1330.51 11.7333 1327.98 15.2 1322.91 17.6C1317.85 19.7333 1312.65 20.9333 1307.31 21.2C1299.05 21.2 1290.91 20.9333 1282.91 20.4C1274.91 19.8667 1267.05 19.0667 1259.31 18C1252.65 22.2667 1244.38 29.7333 1234.51 40.4C1224.91 51.0667 1215.58 64.2667 1206.51 80C1196.11 97.8667 1185.31 116.133 1174.11 134.8C1163.18 153.467 1151.31 170.533 1138.51 186C1125.98 201.467 1111.85 214 1096.11 223.6C1080.65 233.2 1062.91 238 1042.91 238ZM1221.96 230.8C1209.7 230.8 1201.03 228.133 1195.96 222.8C1190.9 217.467 1188.36 210.267 1188.36 201.2C1188.36 192.4 1190.76 183.2 1195.56 173.6C1200.63 163.733 1206.9 154.4 1214.36 145.6C1218.9 140.267 1224.5 134.667 1231.16 128.8C1237.83 122.933 1245.03 117.467 1252.76 112.4C1260.5 107.067 1268.1 102.8 1275.56 99.6C1283.3 96.1333 1290.1 94.4 1295.96 94.4C1299.16 94.4 1302.1 95.2 1304.76 96.8C1307.43 98.1333 1308.76 101.2 1308.76 106C1308.76 112.667 1305.56 119.067 1299.16 125.2C1292.76 131.067 1285.56 136.533 1277.56 141.6C1268.5 147.467 1259.03 152.4 1249.16 156.4C1239.3 160.4 1230.76 163.467 1223.56 165.6C1219.56 172 1216.36 178.533 1213.96 185.2C1211.56 191.867 1210.36 198.4 1210.36 204.8C1210.36 211.733 1211.96 216.533 1215.16 219.2C1218.63 221.6 1222.63 222.8 1227.16 222.8C1235.43 222.8 1242.9 220.933 1249.56 217.2C1256.5 213.2 1262.9 208.133 1268.76 202C1274.63 195.867 1280.23 189.733 1285.56 183.6C1286.63 183.6 1287.16 184.4 1287.16 186C1287.16 188.4 1286.63 190.267 1285.56 191.6C1280.23 197.733 1274.36 203.867 1267.96 210C1261.83 216.133 1255.03 221.2 1247.56 225.2C1240.1 228.933 1231.56 230.8 1221.96 230.8ZM1228.36 160C1235.3 157.6 1243.43 154.267 1252.76 150C1262.36 145.733 1270.76 141.067 1277.96 136C1279.56 134.933 1282.36 132.8 1286.36 129.6C1290.36 126.133 1294.1 122.4 1297.56 118.4C1301.03 114.133 1302.76 110.4 1302.76 107.2C1302.76 102.933 1300.63 100.8 1296.36 100.8C1291.83 100.8 1286.63 102.8 1280.76 106.8C1275.16 110.8 1270.63 114.267 1267.16 117.2C1260.76 123.067 1254.1 129.6 1247.16 136.8C1240.23 144 1233.96 151.733 1228.36 160ZM1292.9 228.4C1283.04 228.4 1278.1 222.8 1278.1 211.6C1278.1 205.2 1279.97 197.6 1283.7 188.8C1287.44 179.733 1293.04 170.267 1300.5 160.4C1305.84 153.733 1312.37 146.667 1320.1 139.2C1327.84 131.467 1336.24 124.133 1345.3 117.2C1354.64 110.267 1364.1 104.667 1373.7 100.4C1383.3 95.8667 1392.64 93.6 1401.7 93.6C1405.7 93.6 1408.5 94.2667 1410.1 95.6C1411.7 96.6667 1412.77 97.8667 1413.3 99.2C1413.84 100.267 1413.84 101.067 1413.3 101.6C1413.04 102.133 1412.64 102.267 1412.1 102C1411.04 101.467 1408.9 101.2 1405.7 101.2C1396.1 101.2 1384.64 105.867 1371.3 115.2C1358.24 124.267 1345.3 136.133 1332.5 150.8C1323.44 160.933 1315.97 170.933 1310.1 180.8C1304.24 190.4 1300.37 198.4 1298.5 204.8C1297.97 206.933 1297.7 208.8 1297.7 210.4C1297.7 214.133 1299.17 216 1302.1 216C1303.97 216 1306.5 215.2 1309.7 213.6C1312.9 211.733 1317.04 208.667 1322.1 204.4C1330.1 197.467 1337.97 189.333 1345.7 180C1353.7 170.667 1361.57 161.2 1369.3 151.6C1377.04 141.733 1384.5 132.667 1391.7 124.4C1399.17 116.133 1406.24 109.867 1412.9 105.6C1421.44 100 1427.3 96.8 1430.5 96C1433.97 95.2 1436.77 94.6667 1438.9 94.4C1437.57 96 1434.64 99.7333 1430.1 105.6C1425.57 111.467 1420.77 117.733 1415.7 124.4C1410.64 130.8 1406.5 136.133 1403.3 140.4C1398.5 147.333 1393.3 154.8 1387.7 162.8C1382.37 170.8 1377.44 178.4 1372.9 185.6C1368.64 192.533 1365.7 198.267 1364.1 202.8C1362.77 207.333 1362.1 210.667 1362.1 212.8C1362.1 217.067 1363.84 219.2 1367.3 219.2C1369.7 219.2 1372.5 218.267 1375.7 216.4C1379.17 214.267 1382.64 211.867 1386.1 209.2C1390.64 205.467 1394.9 201.6 1398.9 197.6C1402.9 193.333 1407.04 188.667 1411.3 183.6C1412.37 183.6 1412.9 184.4 1412.9 186C1412.9 188.4 1412.37 190.267 1411.3 191.6C1407.84 195.6 1403.57 200 1398.5 204.8C1393.7 209.6 1388.9 213.867 1384.1 217.6C1380.64 220.533 1376.64 223.067 1372.1 225.2C1367.57 227.333 1363.17 228.4 1358.9 228.4C1352.77 228.4 1348.5 226.933 1346.1 224C1343.7 221.067 1342.5 217.333 1342.5 212.8C1342.5 207.467 1343.7 201.733 1346.1 195.6C1348.5 189.2 1351.17 183.2 1354.1 177.6C1350.64 181.867 1346.24 187.067 1340.9 193.2C1335.57 199.067 1330.77 204 1326.5 208C1320.64 213.333 1315.04 218.133 1309.7 222.4C1304.37 226.4 1298.77 228.4 1292.9 228.4ZM1527.12 228.4C1521.52 228.4 1517.52 226.933 1515.12 224C1512.72 220.8 1511.52 216.8 1511.52 212C1511.52 204.8 1514.06 196.667 1519.12 187.6C1524.19 178.267 1530.72 168.533 1538.72 158.4C1546.99 148.267 1555.52 138.267 1564.32 128.4C1573.39 118.533 1581.92 109.467 1589.92 101.2C1585.92 101.2 1581.52 102.267 1576.72 104.4C1572.19 106.533 1567.52 109.067 1562.72 112C1555.26 117.067 1546.99 123.733 1537.92 132C1529.12 140.267 1520.32 149.2 1511.52 158.8C1502.72 168.133 1494.46 177.2 1486.72 186C1482.46 192.667 1478.59 198.933 1475.12 204.8C1471.66 210.667 1469.26 215.733 1467.92 220C1462.59 217.867 1459.92 214 1459.92 208.4C1459.92 204.133 1461.12 199.2 1463.52 193.6C1468.32 182.933 1474.59 172.267 1482.32 161.6C1490.06 150.933 1498.32 140.533 1507.12 130.4C1516.19 120 1524.59 110.133 1532.32 100.8C1527.52 100.8 1521.52 102.933 1514.32 107.2C1507.12 111.2 1499.92 115.867 1492.72 121.2C1485.79 126.533 1480.19 131.467 1475.92 136C1470.32 141.867 1463.66 149.2 1455.92 158C1448.46 166.8 1440.99 175.6 1433.52 184.4C1426.32 192.933 1420.46 200.267 1415.92 206.4C1411.12 212.8 1407.92 217.733 1406.32 221.2C1404.46 224.667 1403.26 226.8 1402.72 227.6C1398.46 227.6 1396.32 225.067 1396.32 220C1396.32 214.667 1398.06 208.267 1401.52 200.8C1404.72 193.333 1407.52 187.467 1409.92 183.2C1416.86 171.467 1424.72 159.2 1433.52 146.4C1442.59 133.333 1450.99 121.867 1458.72 112C1462.72 106.667 1466.99 102.8 1471.52 100.4C1476.06 97.7333 1479.92 96.1333 1483.12 95.6C1486.32 94.8 1487.92 94.4 1487.92 94.4C1486.32 96.8 1482.99 101.733 1477.92 109.2C1473.12 116.667 1467.52 125.467 1461.12 135.6C1454.72 145.467 1448.19 155.733 1441.52 166.4C1452.19 153.333 1463.39 140.8 1475.12 128.8C1486.86 116.8 1498.06 107.733 1508.72 101.6C1517.52 96.8 1525.79 94.4 1533.52 94.4C1539.66 94.4 1542.72 96.5333 1542.72 100.8C1542.72 104.8 1540.59 109.6 1536.32 115.2C1534.46 117.6 1531.92 121.067 1528.72 125.6C1525.52 130.133 1522.59 134.267 1519.92 138C1517.52 141.733 1516.32 143.6 1516.32 143.6L1513.92 147.2C1522.46 138.4 1531.12 130.133 1539.92 122.4C1548.72 114.667 1557.26 108.133 1565.52 102.8C1568.99 100.4 1572.59 98.4 1576.32 96.8C1580.06 95.2 1583.92 94.4 1587.92 94.4C1595.12 94.4 1598.72 97.2 1598.72 102.8C1598.72 107.067 1596.19 112.133 1591.12 118C1584.99 125.2 1578.32 133.2 1571.12 142C1563.92 150.8 1556.99 159.733 1550.32 168.8C1543.92 177.867 1538.59 186.267 1534.32 194C1530.32 201.733 1528.32 208 1528.32 212.8C1528.32 215.467 1528.99 217.467 1530.32 218.8C1531.92 219.867 1533.26 220.4 1534.32 220.4C1538.32 220.4 1542.72 218.8 1547.52 215.6C1552.59 212.4 1557.39 208.667 1561.92 204.4C1566.72 199.867 1570.86 195.6 1574.32 191.6C1578.06 187.6 1580.46 184.933 1581.52 183.6C1582.59 183.6 1583.12 184.4 1583.12 186C1583.12 188.4 1582.59 190.267 1581.52 191.6C1577.79 195.6 1572.86 200.533 1566.72 206.4C1560.59 212.267 1554.06 217.467 1547.12 222C1540.19 226.267 1533.52 228.4 1527.12 228.4Z" fill="black"/>
</svg>
