<svg width="24" height="25" viewBox="0 0 24 25" fill="none" xmlns="http://www.w3.org/2000/svg">
<path d="M9.57622 0.736023C4.91673 1.64542 1.16196 5.39082 0.243184 10.0362C-1.49123 18.8021 6.41677 25.3366 12.3747 24.4132C14.306 24.1131 15.2529 21.8537 14.367 20.1146C13.2841 17.9864 14.831 15.502 17.2217 15.502H20.9577C22.6359 15.502 23.9953 14.1145 24 12.441C23.9766 5.05331 17.2545 -0.759325 9.57622 0.736023ZM4.49954 15.502C3.66983 15.502 2.9995 14.8317 2.9995 14.002C2.9995 13.1723 3.66983 12.5019 4.49954 12.5019C5.32924 12.5019 5.99957 13.1723 5.99957 14.002C5.99957 14.8317 5.32924 15.502 4.49954 15.502ZM5.99957 9.50186C5.16986 9.50186 4.49954 8.83153 4.49954 8.00182C4.49954 7.17211 5.16986 6.50179 5.99957 6.50179C6.82928 6.50179 7.49961 7.17211 7.49961 8.00182C7.49961 8.83153 6.82928 9.50186 5.99957 9.50186ZM11.9997 6.50179C11.17 6.50179 10.4997 5.83146 10.4997 5.00175C10.4997 4.17204 11.17 3.50171 11.9997 3.50171C12.8294 3.50171 13.4997 4.17204 13.4997 5.00175C13.4997 5.83146 12.8294 6.50179 11.9997 6.50179ZM17.9999 9.50186C17.1701 9.50186 16.4998 8.83153 16.4998 8.00182C16.4998 7.17211 17.1701 6.50179 17.9999 6.50179C18.8296 6.50179 19.4999 7.17211 19.4999 8.00182C19.4999 8.83153 18.8296 9.50186 17.9999 9.50186Z" fill="black"/>
</svg>
